<?xml version="1.0" encoding="UTF-8" standalone="no"?>
<!DOCTYPE svg PUBLIC "-//W3C//DTD SVG 1.1//EN" "http://www.w3.org/Graphics/SVG/1.1/DTD/svg11.dtd">
<svg width="100%" height="100%" viewBox="0 0 512 512" version="1.1" xmlns="http://www.w3.org/2000/svg" xmlns:xlink="http://www.w3.org/1999/xlink" xml:space="preserve" xmlns:serif="http://www.serif.com/" style="fill-rule:evenodd;clip-rule:evenodd;stroke-linejoin:round;stroke-miterlimit:2;">
    <path d="M507.087,219.838C502.379,208.763 494.711,199.142 485.215,192.157C480.463,188.668 475.233,185.848 469.674,183.887C464.106,181.941 458.194,180.839 452.142,180.839L275.804,180.839C281.342,175.374 290.354,166.774 304.61,153.818C310.78,148.199 315.642,141.957 318.976,135.258C322.318,128.56 324.102,121.384 324.102,114.12C324.102,108.568 323.052,102.993 320.973,97.631C316.963,87.275 309.456,78.741 300.188,72.785C290.919,66.828 279.792,63.391 268.151,63.384C256.965,63.384 246.197,66.704 237.229,73.027C235.937,73.945 233.168,75.833 229.341,78.425C215.915,87.489 189.291,105.247 162.101,123.33C137.709,139.546 112.885,156.028 96.645,166.81C87.281,159.23 75.412,154.816 62.779,154.816L53.907,154.816C39.063,154.816 25.535,160.876 15.803,170.63C6.059,180.354 0,193.875 0,208.734L0,363.837C0,378.688 6.059,392.216 15.805,401.941C25.537,411.68 39.065,417.747 53.909,417.747L62.781,417.747C74.915,417.747 86.446,413.722 95.744,406.495L208.514,443.805L208.506,443.805L208.543,443.813C217.995,446.993 227.823,448.617 237.745,448.617C274.328,448.624 307.313,426.855 321.723,393.223L358.938,306.388L449.226,306.388C466.516,306.388 482.254,299.337 493.594,287.997C504.942,276.643 512.008,260.91 512,243.614C512,235.291 510.208,227.235 507.087,219.838ZM470.635,265.022C465.127,270.516 457.606,273.887 449.225,273.887L355.574,273.887C344.608,273.887 334.715,280.417 330.404,290.494L291.86,380.421C287.093,391.533 279.315,400.427 269.848,406.59C260.374,412.744 249.21,416.116 237.745,416.116C231.473,416.116 225.112,415.117 218.855,413.002L218.789,412.973L103.398,374.803L103.398,275.203C103.398,270.723 99.762,267.08 95.275,267.08C90.795,267.08 87.152,270.723 87.152,275.203L87.152,371.388L83.296,371.388L80.909,375.185C79.013,378.211 76.37,380.745 73.27,382.493C70.171,384.256 66.624,385.255 62.782,385.255L53.91,385.255C47.976,385.255 42.673,382.86 38.766,378.975C34.881,375.075 32.501,369.765 32.494,363.838L32.494,208.734C32.502,202.799 34.881,197.482 38.766,193.589C42.673,189.704 47.976,187.324 53.91,187.309L62.782,187.309C67.527,187.324 71.824,188.83 75.371,191.422C78.911,194.008 81.629,197.665 83.061,201.903L84.919,207.411L94.203,207.411L96.244,206.074C96.244,206.074 132.615,181.954 170.741,156.616C189.808,143.939 209.307,130.954 224.937,120.51C232.751,115.281 239.589,110.697 244.929,107.106C247.595,105.306 249.894,103.757 251.745,102.494C253.611,101.238 255.021,100.268 255.975,99.586C257.775,98.301 259.706,97.404 261.748,96.788C263.79,96.186 265.942,95.877 268.153,95.877C271.12,95.877 274.175,96.427 277.039,97.449C281.343,98.962 285.17,101.547 287.711,104.514C288.989,106.013 289.951,107.584 290.597,109.164C291.229,110.758 291.552,112.359 291.567,114.063C291.553,116.149 291.083,118.403 289.761,121.026C288.431,123.64 286.221,126.622 282.754,129.773C266.434,144.609 256.585,154.077 250.775,159.908C244.943,165.74 243.159,167.913 242.887,168.237C238.296,173.29 235.858,179.775 235.858,186.371C235.858,189.948 236.57,193.562 238.025,196.969C242.277,206.899 252.031,213.333 262.821,213.333L452.143,213.333C455.301,213.333 458.57,214.156 461.772,215.771C466.59,218.165 471.173,222.367 474.405,227.405C477.651,232.458 479.525,238.231 479.509,243.615C479.5,252.008 476.129,259.514 470.635,265.022Z" style="fill:rgb(247,247,247);fill-rule:nonzero;"/>
</svg>
